REM DIRINDEX 1\2,1\3,1\4,1\5
REM DIRNAME folder01,folder02,folder03,folder04,folder05
TITLE ""
FILE "CD1Track08.mp3" MP3
  TRACK 01 AUDIO
    TITLE "5:cjc154_0688"
    INDEX 01 00:00:00
  TRACK 02 AUDIO
    TITLE "0:"
    INDEX 01 00:01:38
  TRACK 03 AUDIO
    TITLE "2:cjc154_0689"
    INDEX 01 00:02:40
  TRACK 04 AUDIO
    TITLE "3:cjc154_0690"
    INDEX 01 00:04:21
  TRACK 05 AUDIO
    TITLE "2:cjc154_0691"
    INDEX 01 00:06:04
  TRACK 06 AUDIO
    TITLE "3:cjc154_0692"
    INDEX 01 00:08:07
  TRACK 07 AUDIO
    TITLE "2:cjc154_0693"
    INDEX 01 00:10:21
  TRACK 08 AUDIO
    TITLE "3:cjc154_0694"
    INDEX 01 00:11:62
  TRACK 09 AUDIO
    TITLE "2:cjc154_0695"
    INDEX 01 00:13:41
  TRACK 10 AUDIO
    TITLE "3:cjc154_0696"
    INDEX 01 00:15:36
  TRACK 11 AUDIO
    TITLE "2:cjc154_0697"
    INDEX 01 00:17:43
  TRACK 12 AUDIO
    TITLE "3:cjc154_0698"
    INDEX 01 00:19:15
  TRACK 13 AUDIO
    TITLE "2:cjc154_0699"
    INDEX 01 00:20:73
  TRACK 14 AUDIO
    TITLE "3:cjc154_0700"
    INDEX 01 00:22:27
  TRACK 15 AUDIO
    TITLE "2:cjc154_0701"
    INDEX 01 00:23:59
  TRACK 16 AUDIO
    TITLE "3:cjc154_0702"
    INDEX 01 00:25:70
  TRACK 17 AUDIO
    TITLE "2:cjc154_0703"
    INDEX 01 00:28:12
  TRACK 18 AUDIO
    TITLE "3:cjc154_0704"
    INDEX 01 00:29:50
  TRACK 19 AUDIO
    TITLE "2:cjc154_0705"
    INDEX 01 00:31:24
  TRACK 20 AUDIO
    TITLE "3:cjc154_0706"
    INDEX 01 00:33:11
  TRACK 21 AUDIO
    TITLE "2:cjc154_0707"
    INDEX 01 00:35:04
  TRACK 22 AUDIO
    TITLE "3:cjc154_0708"
    INDEX 01 00:36:42
  TRACK 23 AUDIO
    TITLE "2:cjc154_0709"
    INDEX 01 00:38:14
  TRACK 24 AUDIO
    TITLE "3:cjc154_0710"
    INDEX 01 00:40:23
  TRACK 25 AUDIO
    TITLE "2:cjc154_0711"
    INDEX 01 00:42:31
  TRACK 26 AUDIO
    TITLE "3:cjc154_0712"
    INDEX 01 00:43:58
  TRACK 27 AUDIO
    TITLE "2:cjc154_0713"
    INDEX 01 00:45:22
  TRACK 28 AUDIO
    TITLE "3:cjc154_0714"
    INDEX 01 00:47:01
  TRACK 29 AUDIO
    TITLE "2:cjc154_0715"
    INDEX 01 00:48:63
  TRACK 30 AUDIO
    TITLE "3:cjc154_0716"
    INDEX 01 00:50:50
  TRACK 31 AUDIO
    TITLE "2:cjc154_0717"
    INDEX 01 00:52:43
  TRACK 32 AUDIO
    TITLE "3:cjc154_0718"
    INDEX 01 00:54:52
  TRACK 33 AUDIO
    TITLE "2:cjc154_0719"
    INDEX 01 00:56:72
  TRACK 34 AUDIO
    TITLE "3:cjc154_0720"
    INDEX 01 00:58:32
  TRACK 35 AUDIO
    TITLE "2:cjc154_0721"
    INDEX 01 00:59:73
  TRACK 36 AUDIO
    TITLE "3:cjc154_0722"
    INDEX 01 01:01:23
  TRACK 37 AUDIO
    TITLE "2:cjc154_0723"
    INDEX 01 01:02:50
  TRACK 38 AUDIO
    TITLE "3:cjc154_0724"
    INDEX 01 01:04:47
  TRACK 39 AUDIO
    TITLE "2:cjc154_0725"
    INDEX 01 01:06:42
  TRACK 40 AUDIO
    TITLE "3:cjc154_0726"
    INDEX 01 01:08:21
  TRACK 41 AUDIO
    TITLE "2:cjc154_0727"
    INDEX 01 01:10:04
  TRACK 42 AUDIO
    TITLE "3:cjc154_0728"
    INDEX 01 01:12:40
  TRACK 43 AUDIO
    TITLE "2:cjc154_0729"
    INDEX 01 01:15:09
  TRACK 44 AUDIO
    TITLE "3:cjc154_0730"
    INDEX 01 01:16:36
  TRACK 45 AUDIO
    TITLE "2:cjc154_0731"
    INDEX 01 01:17:71
  TRACK 46 AUDIO
    TITLE "3:cjc154_0732"
    INDEX 01 01:19:54
  TRACK 47 AUDIO
    TITLE "2:cjc154_0733"
    INDEX 01 01:21:39
  TRACK 48 AUDIO
    TITLE "3:cjc154_0734"
    INDEX 01 01:22:66
  TRACK 49 AUDIO
    TITLE "2:cjc154_0735"
    INDEX 01 01:24:28
  TRACK 50 AUDIO
    TITLE "3:cjc154_0736"
    INDEX 01 01:25:60
  TRACK 51 AUDIO
    TITLE "2:cjc154_0737"
    INDEX 01 01:27:30
  TRACK 52 AUDIO
    TITLE "3:cjc154_0738"
    INDEX 01 01:29:25
  TRACK 53 AUDIO
    TITLE "2:cjc154_0739"
    INDEX 01 01:31:22
  TRACK 54 AUDIO
    TITLE "3:cjc154_0740"
    INDEX 01 01:33:21
  TRACK 55 AUDIO
    TITLE "2:cjc154_0741"
    INDEX 01 01:35:31
  TRACK 56 AUDIO
    TITLE "3:cjc154_0742"
    INDEX 01 01:37:26
  TRACK 57 AUDIO
    TITLE "2:cjc154_0743"
    INDEX 01 01:39:29
  TRACK 58 AUDIO
    TITLE "3:cjc154_0744"
    INDEX 01 01:41:09
  TRACK 59 AUDIO
    TITLE "2:cjc154_0745"
    INDEX 01 01:42:71
  TRACK 60 AUDIO
    TITLE "3:cjc154_0746"
    INDEX 01 01:44:64
  TRACK 61 AUDIO
    TITLE "2:cjc154_0747"
    INDEX 01 01:46:65
  TRACK 62 AUDIO
    TITLE "3:cjc154_0748"
    INDEX 01 01:48:58
  TRACK 63 AUDIO
    TITLE "2:cjc154_0749"
    INDEX 01 01:50:54
  TRACK 64 AUDIO
    TITLE "3:cjc154_0750"
    INDEX 01 01:52:36
  TRACK 65 AUDIO
    TITLE "2:cjc154_0751"
    INDEX 01 01:54:27
  TRACK 66 AUDIO
    TITLE "3:cjc154_0752"
    INDEX 01 01:56:04
  TRACK 67 AUDIO
    TITLE "2:cjc154_0753"
    INDEX 01 01:57:64
  TRACK 68 AUDIO
    TITLE "3:cjc154_0754"
    INDEX 01 01:59:38
  TRACK 69 AUDIO
    TITLE "2:cjc154_0755"
    INDEX 01 02:01:19
  TRACK 70 AUDIO
    TITLE "3:cjc154_0756"
    INDEX 01 02:03:02
  TRACK 71 AUDIO
    TITLE "2:cjc154_0757"
    INDEX 01 02:04:70
  TRACK 72 AUDIO
    TITLE "3:cjc154_0758"
    INDEX 01 02:06:67
  TRACK 73 AUDIO
    TITLE "2:cjc154_0759"
    INDEX 01 02:08:74
  TRACK 74 AUDIO
    TITLE "3:cjc154_0760"
    INDEX 01 02:11:00
  TRACK 75 AUDIO
    TITLE "2:cjc154_0761"
    INDEX 01 02:13:09
  TRACK 76 AUDIO
    TITLE "3:cjc154_0762"
    INDEX 01 02:14:55
  TRACK 77 AUDIO
    TITLE "2:cjc154_0763"
    INDEX 01 02:16:34
  TRACK 78 AUDIO
    TITLE "3:cjc154_0764"
    INDEX 01 02:17:44
  TRACK 79 AUDIO
    TITLE "2:cjc154_0765"
    INDEX 01 02:18:65
  TRACK 80 AUDIO
    TITLE "3:cjc154_0766"
    INDEX 01 02:20:12
  TRACK 81 AUDIO
    TITLE "2:cjc154_0767"
    INDEX 01 02:21:43
  TRACK 82 AUDIO
    TITLE "3:cjc154_0768"
    INDEX 01 02:23:11
  TRACK 83 AUDIO
    TITLE "2:cjc154_0769"
    INDEX 01 02:24:63
  TRACK 84 AUDIO
    TITLE "3:cjc154_0770"
    INDEX 01 02:26:41
  TRACK 85 AUDIO
    TITLE "2:cjc154_0771"
    INDEX 01 02:28:22
  TRACK 86 AUDIO
    TITLE "3:cjc154_0772"
    INDEX 01 02:29:51
  TRACK 87 AUDIO
    TITLE "2:cjc154_0773"
    INDEX 01 02:31:08
  TRACK 88 AUDIO
    TITLE "3:cjc154_0774"
    INDEX 01 02:33:27
  TRACK 89 AUDIO
    TITLE "2:cjc154_0775"
    INDEX 01 02:35:45
  TRACK 90 AUDIO
    TITLE "3:cjc154_0776"
    INDEX 01 02:37:60
  TRACK 91 AUDIO
    TITLE "2:cjc154_0777"
    INDEX 01 02:40:09
  TRACK 92 AUDIO
    TITLE "3:cjc154_0778"
    INDEX 01 02:42:55
  TRACK 93 AUDIO
    TITLE "2:cjc154_0779"
    INDEX 01 02:45:30
  TRACK 94 AUDIO
    TITLE "3:cjc154_0780"
    INDEX 01 02:47:02
  TRACK 95 AUDIO
    TITLE "2:cjc154_0781"
    INDEX 01 02:48:54
  TRACK 96 AUDIO
    TITLE "3:cjc154_0782"
    INDEX 01 02:51:09
  TRACK 97 AUDIO
    TITLE "2:cjc154_0783"
    INDEX 01 02:53:47
  TRACK 98 AUDIO
    TITLE "3:cjc154_0784"
    INDEX 01 02:55:21
  TRACK 99 AUDIO
    TITLE "2:cjc154_0785"
    INDEX 01 02:56:73
  TRACK 100 AUDIO
    TITLE "3:cjc154_0786"
    INDEX 01 02:59:28
  TRACK 101 AUDIO
    TITLE "2:cjc154_0787"
    INDEX 01 03:01:68
  TRACK 102 AUDIO
    TITLE "3:cjc154_0788"
    INDEX 01 03:03:28
  TRACK 103 AUDIO
    TITLE "2:cjc154_0789"
    INDEX 01 03:04:71
  TRACK 104 AUDIO
    TITLE "3:cjc154_0790"
    INDEX 01 03:06:46
  TRACK 105 AUDIO
    TITLE "2:cjc154_0791"
    INDEX 01 03:08:25
  TRACK 106 AUDIO
    TITLE "3:cjc154_0792"
    INDEX 01 03:09:44
  TRACK 107 AUDIO
    TITLE "2:cjc154_0793"
    INDEX 01 03:10:71
  TRACK 108 AUDIO
    TITLE "3:cjc154_0794"
    INDEX 01 03:12:07
  TRACK 109 AUDIO
    TITLE "2:cjc154_0795"
    INDEX 01 03:13:26
  TRACK 110 AUDIO
    TITLE "3:cjc154_0796"
    INDEX 01 03:15:33
  TRACK 111 AUDIO
    TITLE "2:cjc154_0797"
    INDEX 01 03:17:46
  TRACK 112 AUDIO
    TITLE "3:cjc154_0798"
    INDEX 01 03:20:07
  TRACK 113 AUDIO
    TITLE "2:cjc154_0799"
    INDEX 01 03:22:43
  TRACK 114 AUDIO
    TITLE "3:cjc154_0800"
    INDEX 01 03:24:01
  TRACK 115 AUDIO
    TITLE "2:cjc154_0801"
    INDEX 01 03:25:41
  TRACK 116 AUDIO
    TITLE "3:cjc154_0802"
    INDEX 01 03:27:27
  TRACK 117 AUDIO
    TITLE "2:cjc154_0803"
    INDEX 01 03:29:20
  TRACK 118 AUDIO
    TITLE "3:cjc154_0804"
    INDEX 01 03:30:44
  TRACK 119 AUDIO
    TITLE "2:cjc154_0805"
    INDEX 01 03:32:06
  TRACK 120 AUDIO
    TITLE "3:cjc154_0806"
    INDEX 01 03:34:13
  TRACK 121 AUDIO
    TITLE "2:cjc154_0807"
    INDEX 01 03:36:24
  TRACK 122 AUDIO
    TITLE "3:cjc154_0808"
    INDEX 01 03:37:35
  TRACK 123 AUDIO
    TITLE "2:cjc154_0809"
    INDEX 01 03:38:54
  TRACK 124 AUDIO
    TITLE "3:cjc154_0810"
    INDEX 01 03:40:29
  TRACK 125 AUDIO
    TITLE "2:cjc154_0811"
    INDEX 01 03:42:06
  TRACK 126 AUDIO
    TITLE "3:cjc154_0812"
    INDEX 01 03:43:26
  TRACK 127 AUDIO
    TITLE "2:cjc154_0813"
    INDEX 01 03:44:54
  TRACK 128 AUDIO
    TITLE "3:cjc154_0814"
    INDEX 01 03:47:14
  TRACK 129 AUDIO
    TITLE "2:cjc154_0815"
    INDEX 01 03:49:52
  TRACK 130 AUDIO
    TITLE "3:cjc154_0816"
    INDEX 01 03:51:15
  TRACK 131 AUDIO
    TITLE "2:cjc154_0817"
    INDEX 01 03:52:62
  TRACK 132 AUDIO
    TITLE "3:cjc154_0818"
    INDEX 01 03:54:41
  TRACK 133 AUDIO
    TITLE "2:cjc154_0819"
    INDEX 01 03:56:22
  TRACK 134 AUDIO
    TITLE "3:cjc154_0820"
    INDEX 01 03:57:67
  TRACK 135 AUDIO
    TITLE "2:cjc154_0821"
    INDEX 01 03:59:48
  TRACK 136 AUDIO
    TITLE "3:cjc154_0822"
    INDEX 01 04:01:33
  TRACK 137 AUDIO
    TITLE "2:cjc154_0823"
    INDEX 01 04:03:28
  TRACK 138 AUDIO
    TITLE "3:cjc154_0824"
    INDEX 01 04:04:55
  TRACK 139 AUDIO
    TITLE "2:cjc154_0825"
    INDEX 01 04:06:05
  TRACK 140 AUDIO
    TITLE "3:cjc154_0826"
    INDEX 01 04:07:63
  TRACK 141 AUDIO
    TITLE "2:cjc154_0827"
    INDEX 01 04:09:56
  TRACK 142 AUDIO
    TITLE "3:cjc154_0828"
    INDEX 01 04:11:34
  TRACK 143 AUDIO
    TITLE "2:cjc154_0829"
    INDEX 01 04:13:17
  TRACK 144 AUDIO
    TITLE "3:cjc154_0830"
    INDEX 01 04:15:49
  TRACK 145 AUDIO
    TITLE "2:cjc154_0831"
    INDEX 01 04:18:14
  TRACK 146 AUDIO
    TITLE "3:cjc154_0832"
    INDEX 01 04:19:61
  TRACK 147 AUDIO
    TITLE "2:cjc154_0833"
    INDEX 01 04:21:42
  TRACK 148 AUDIO
    TITLE "3:cjc154_0834"
    INDEX 01 04:22:55
  TRACK 149 AUDIO
    TITLE "2:cjc154_0835"
    INDEX 01 04:24:05
  TRACK 150 AUDIO
    TITLE "3:cjc154_0836"
    INDEX 01 04:26:06
  TRACK 151 AUDIO
    TITLE "2:cjc154_0837"
    INDEX 01 04:28:12
  TRACK 152 AUDIO
    TITLE "3:cjc154_0838"
    INDEX 01 04:30:27
  TRACK 153 AUDIO
    TITLE "2:cjc154_0839"
    INDEX 01 04:32:48
  TRACK 154 AUDIO
    TITLE "3:cjc154_0840"
    INDEX 01 04:34:19
  TRACK 155 AUDIO
    TITLE "2:cjc154_0841"
    INDEX 01 04:35:71
  TRACK 156 AUDIO
    TITLE "3:cjc154_0842"
    INDEX 01 04:37:35
  TRACK 157 AUDIO
    TITLE "2:cjc154_0843"
    INDEX 01 04:39:10
  TRACK 158 AUDIO
    TITLE "3:cjc154_0844"
    INDEX 01 04:40:69
  TRACK 159 AUDIO
    TITLE "2:cjc154_0845"
    INDEX 01 04:42:54
  TRACK 160 AUDIO
    TITLE "3:cjc154_0846"
    INDEX 01 04:44:35
  TRACK 161 AUDIO
    TITLE "2:cjc154_0847"
    INDEX 01 04:46:24
  TRACK 162 AUDIO
    TITLE "3:cjc154_0848"
    INDEX 01 04:47:59
  TRACK 163 AUDIO
    TITLE "2:cjc154_0849"
    INDEX 01 04:49:28
  TRACK 164 AUDIO
    TITLE "3:cjc154_0850"
    INDEX 01 04:51:37
  TRACK 165 AUDIO
    TITLE "2:cjc154_0851"
    INDEX 01 04:53:57
  TRACK 166 AUDIO
    TITLE "3:cjc154_0852"
    INDEX 01 04:55:07
  TRACK 167 AUDIO
    TITLE "2:cjc154_0853"
    INDEX 01 04:56:40
  TRACK 168 AUDIO
    TITLE "3:cjc154_0854"
    INDEX 01 04:58:55
  TRACK 169 AUDIO
    TITLE "2:cjc154_0855"
    INDEX 01 05:01:04
  TRACK 170 AUDIO
    TITLE "3:cjc154_0856"
    INDEX 01 05:03:07
  TRACK 171 AUDIO
    TITLE "2:cjc154_0857"
    INDEX 01 05:05:18
  TRACK 172 AUDIO
    TITLE "3:cjc154_0858"
    INDEX 01 05:06:52
  TRACK 173 AUDIO
    TITLE "2:cjc154_0859"
    INDEX 01 05:08:20
  TRACK 174 AUDIO
    TITLE "3:cjc154_0860"
    INDEX 01 05:09:74
  TRACK 175 AUDIO
    TITLE "2:cjc154_0861"
    INDEX 01 05:11:59
  TRACK 176 AUDIO
    TITLE "3:cjc154_0862"
    INDEX 01 05:13:46
  TRACK 177 AUDIO
    TITLE "2:cjc154_0863"
    INDEX 01 05:15:47
  TRACK 178 AUDIO
    TITLE "3:cjc154_0864"
    INDEX 01 05:17:56
  TRACK 179 AUDIO
    TITLE "2:cjc154_0865"
    INDEX 01 05:20:01
  TRACK 180 AUDIO
    TITLE "3:cjc154_0866"
    INDEX 01 05:21:62
  TRACK 181 AUDIO
    TITLE "2:cjc154_0867"
    INDEX 01 05:23:51
  TRACK 182 AUDIO
    TITLE "3:cjc154_0868"
    INDEX 01 05:24:64
  TRACK 183 AUDIO
    TITLE "2:cjc154_0869"
    INDEX 01 05:26:14
  TRACK 184 AUDIO
    TITLE "3:cjc154_0870"
    INDEX 01 05:27:54
  TRACK 185 AUDIO
    TITLE "2:cjc154_0871"
    INDEX 01 05:29:24
  TRACK 186 AUDIO
    TITLE "3:cjc154_0872"
    INDEX 01 05:31:05
  TRACK 187 AUDIO
    TITLE "2:cjc154_0873"
    INDEX 01 05:32:69
  TRACK 188 AUDIO
    TITLE "3:cjc154_0874"
    INDEX 01 05:34:11
  TRACK 189 AUDIO
    TITLE "2:cjc154_0875"
    INDEX 01 05:35:36
  TRACK 190 AUDIO
    TITLE "3:cjc154_0876"
    INDEX 01 05:37:72
  TRACK 191 AUDIO
    TITLE "2:cjc154_0877"
    INDEX 01 05:40:45
  TRACK 192 AUDIO
    TITLE "3:cjc154_0878"
    INDEX 01 05:42:11
  TRACK 193 AUDIO
    TITLE "2:cjc154_0879"
    INDEX 01 05:43:59
  TRACK 194 AUDIO
    TITLE "3:cjc154_0880"
    INDEX 01 05:47:02
  TRACK 195 AUDIO
    TITLE "2:cjc154_0881"
    INDEX 01 05:50:30
  TRACK 196 AUDIO
    TITLE "3:cjc154_0882"
    INDEX 01 05:52:35
  TRACK 197 AUDIO
    TITLE "2:cjc154_0883"
    INDEX 01 05:54:49
  TRACK 198 AUDIO
    TITLE "3:cjc154_0884"
    INDEX 01 05:56:17
  TRACK 199 AUDIO
    TITLE "2:cjc154_0885"
    INDEX 01 05:57:65
  TRACK 200 AUDIO
    TITLE "3:cjc154_0886"
    INDEX 01 05:59:31
  TRACK 201 AUDIO
    TITLE "2:cjc154_0887"
    INDEX 01 06:01:04
  TRACK 202 AUDIO
    TITLE "3:cjc154_0888"
    INDEX 01 06:03:37
  TRACK 203 AUDIO
    TITLE "0:"
    INDEX 01 06:06:06
